<svg xmlns="http://www.w3.org/2000/svg" width="1280" height="720" viewBox="0 0 1280 720">
  <rect width="1280" height="720" fill="#0f172a"/>
  <rect x="40" y="40" width="1200" height="640" rx="14" fill="#0b1220" stroke="#334155"/>
  <text x="80" y="95" fill="#f8fafc" font-family="Verdana, sans-serif" font-size="34" font-weight="700">Leaflet Map View Placeholder</text>
  <text x="80" y="130" fill="#94a3b8" font-family="Verdana, sans-serif" font-size="20">India-centered simulation map with dynamic hazards</text>

  <g stroke="#64748b" stroke-width="2" opacity="0.6">
    <line x1="120" y1="190" x2="1160" y2="190"/>
    <line x1="120" y1="250" x2="1160" y2="250"/>
    <line x1="120" y1="310" x2="1160" y2="310"/>
    <line x1="120" y1="370" x2="1160" y2="370"/>
    <line x1="120" y1="430" x2="1160" y2="430"/>
    <line x1="120" y1="490" x2="1160" y2="490"/>
    <line x1="120" y1="550" x2="1160" y2="550"/>
    <line x1="120" y1="610" x2="1160" y2="610"/>

    <line x1="120" y1="190" x2="120" y2="610"/>
    <line x1="220" y1="190" x2="220" y2="610"/>
    <line x1="320" y1="190" x2="320" y2="610"/>
    <line x1="420" y1="190" x2="420" y2="610"/>
    <line x1="520" y1="190" x2="520" y2="610"/>
    <line x1="620" y1="190" x2="620" y2="610"/>
    <line x1="720" y1="190" x2="720" y2="610"/>
    <line x1="820" y1="190" x2="820" y2="610"/>
    <line x1="920" y1="190" x2="920" y2="610"/>
    <line x1="1020" y1="190" x2="1020" y2="610"/>
    <line x1="1120" y1="190" x2="1120" y2="610"/>
  </g>

  <circle cx="430" cy="355" r="55" fill="#ef4444" opacity="0.35"/>
  <circle cx="730" cy="470" r="65" fill="#3b82f6" opacity="0.30"/>
  <circle cx="900" cy="330" r="10" fill="#92400e"/>
  <line x1="320" y1="250" x2="420" y2="250" stroke="#111827" stroke-width="8"/>
  <line x1="620" y1="490" x2="720" y2="490" stroke="#111827" stroke-width="8"/>

  <circle cx="220" cy="250" r="11" fill="#22c55e"/>
  <circle cx="1120" cy="250" r="11" fill="#22c55e"/>
  <circle cx="220" cy="610" r="11" fill="#22c55e"/>
  <circle cx="1120" cy="610" r="11" fill="#22c55e"/>

  <g>
    <circle cx="520" cy="370" r="14" fill="#2563eb"/>
    <text x="513" y="376" fill="white" font-family="Verdana, sans-serif" font-size="12">🚴</text>
    <circle cx="620" cy="430" r="14" fill="#f59e0b"/>
    <text x="613" y="436" fill="white" font-family="Verdana, sans-serif" font-size="12">🚴</text>
    <circle cx="820" cy="520" r="14" fill="#22c55e"/>
    <text x="813" y="526" fill="white" font-family="Verdana, sans-serif" font-size="12">🚴</text>
  </g>

  <text x="80" y="665" fill="#94a3b8" font-family="Verdana, sans-serif" font-size="18">Tip: replace with a real screenshot named assets/map-view.svg or change to .png in README.</text>
</svg>
